<?xml version="1.0" encoding="utf-8"?>
<!-- Generator: Adobe Illustrator 15.1.0, SVG Export Plug-In  -->
<!DOCTYPE svg PUBLIC "-//W3C//DTD SVG 1.1//EN" "http://www.w3.org/Graphics/SVG/1.1/DTD/svg11.dtd" [
	<!ENTITY ns_flows "http://ns.adobe.com/Flows/1.0/">
]>
<svg version="1.1"
	 xmlns="http://www.w3.org/2000/svg" xmlns:xlink="http://www.w3.org/1999/xlink" xmlns:a="http://ns.adobe.com/AdobeSVGViewerExtensions/3.0/"
	 x="0px" y="0px" width="396px" height="127px" viewBox="-0.8 0.1 396 127"
	 overflow="visible" enable-background="new -0.8 0.1 396 127" xml:space="preserve">
<defs>
</defs>
<polygon fill="#F26547" stroke="#000000" stroke-width="3" stroke-miterlimit="10" points="169.1,2.7 116.4,125.6 90.1,125.6 
	84.2,109 78.4,125.6 54.9,125.6 2.3,2.7 44.2,2.7 69.1,102.6 79.3,57.3 89.8,57.3 101.8,106.1 126.2,2.7 "/>
<path fill="#F26547" stroke="#000000" stroke-width="3" stroke-miterlimit="10" d="M195.4,125.6c-17.6,0-70.2,0-70.2,0L177.9,2.7
	c0,0,87.8-11.1,87.8,35.1C265.6,90.5,230.5,125.6,195.4,125.6z M230.5,52.4c0-20.1-38.1-15.2-38.1-15.2l-22.9,53.3
	c0,0,22.9,0,30.5,0C215.3,90.5,230.5,75.2,230.5,52.4z"/>
<path fill="#F26547" stroke="#000000" stroke-width="3" stroke-miterlimit="10" d="M390.5,125.6c0,0-9.6-5.1-18.9-13.4
	c-7.3-6.5-14.5-15.7-15.9-21.5c0-0.1,0-0.1,0-0.1l-30.5-0.1V37.8c0,0,18.2,0,17.9,0c-3.5-23.9,22.5-35.1,22.5-35.1l-116,0
	c0,0,26.1,11.2,22.5,35.1c-0.3,0,17.9,0,17.9,0v52.7l-30.5,0.1c0,0,0-0.1,0,0.1c-1.4,5.9-8.6,15-15.9,21.5
	c-9.3,8.3-18.9,13.4-18.9,13.4H390.5z"/>
<path fill-rule="evenodd" clip-rule="evenodd" d="M67.6,1.6c-2.5,1.3-5.5,2.1-5.9,5.4c-0.3,2.5,0,5.6,0,8.4c0,2.7,0.3,5.9-0.6,7.7
	c-0.6,1.1-1.9,1.9-3.3,2.2c1.4,0.3,2.6,1,3.2,2.2c0.9,1.8,0.7,4.8,0.7,7.6c0,2.8-0.2,5.7,0,8.3c0.3,3.5,3.3,4.1,5.9,5.5
	c-3.1,0.1-5.2-0.5-6.5-1.8c-2-2-1.6-6.1-1.6-10c0-3.9,0.6-8.3-1.3-10.2c-0.8-0.9-1.9-1.3-3.3-1.5c1.7-0.7,3.4-1.2,4.1-2.8
	c0.5-1.1,0.4-2.8,0.4-4.4c0-1.6,0-3.3,0-4.8c0-4-0.3-8.1,1.8-10.1C62.6,1.9,65,1.4,67.6,1.6z"/>
<path fill-rule="evenodd" clip-rule="evenodd" d="M113.7,25.2c-2.3,0.5-4.2,1.8-4.5,4.3c-0.4,4.2,0.3,9.5-0.1,13.7
	c-0.3,4.2-3.2,5.8-8.1,5.6c2.4-1.3,4.7-1.8,5.7-4.4c0.4-1.2,0.3-2.7,0.3-4.3c0-1.6,0-3.2,0-4.6c0-4.8-0.5-9.7,3.8-10.1
	c-2.2-0.5-3.6-1.9-3.8-4.6c-0.1-2.2,0-5.1,0-8c0-2.8,0.3-5.8-0.7-7.5c-1.1-1.9-3.1-2.5-5.1-3.4c0,0-0.4,0-0.1-0.2
	c5-0.3,7.4,1.5,7.9,5.8c0.5,4.4-0.2,9.4,0.1,13.4C109.5,23.4,111.5,24.6,113.7,25.2z"/>
<path fill-rule="evenodd" clip-rule="evenodd" d="M68.3,7.3c-0.2,0.4-1.3,0.1-1.8,0.2c-0.2,1.4,0.1,3.4-0.2,4.6
	c-0.5,0-0.3-0.6-0.3-1c0-1.1,0-2.6,0-3.7c-0.6,0-1.3,0.1-1.8-0.1c0,0,0-0.1,0-0.1c0-0.1,0-0.1,0.1-0.1C65.6,7.3,67.2,7,68.3,7.3z"/>
<path fill-rule="evenodd" clip-rule="evenodd" d="M69,7.2c0,0.7,0,1.4,0,2c0.2-0.1,0.4-0.3,0.7-0.4c1.7-0.4,1.7,1.7,1.4,3.3
	c-0.5,0-0.3-0.6-0.3-1c0-0.9,0.1-1.7-0.5-1.9c-0.8-0.1-1.1,0.2-1.4,0.6c-0.1,0.7,0.2,1.9-0.2,2.4c-0.4-0.1-0.2-0.7-0.2-1
	c0-1.1,0-2.6,0-3.7c0-0.1,0-0.1,0-0.2C68.7,7.2,68.8,7.2,69,7.2z"/>
<path fill-rule="evenodd" clip-rule="evenodd" d="M78.3,7.2c0.5,0.1,0.8,0.6,1.1,1c0.9,1.1,1.9,2.2,2.9,3.3c0.1-1.4-0.2-3.1,0.1-4.2
	c0,0,0.1,0,0.1,0c0.3,0.2,0.2,0.8,0.2,1.1c0,1.2,0,2.7-0.1,3.8c-0.5-0.1-0.8-0.6-1.1-1c-0.9-1.1-1.9-2.2-2.9-3.3
	c-0.1,1.4,0.2,3.1-0.1,4.3c-0.5,0-0.3-0.7-0.3-1c0-1.1,0-2.6,0-3.8c0-0.1,0-0.1,0-0.2C78.2,7.2,78.2,7.2,78.3,7.2z"/>
<path fill-rule="evenodd" clip-rule="evenodd" d="M92.3,7.3c0.9-0.2,1.5,1.4,2,1.9c0.3-0.3,0.6-0.7,1-1.1c0.3-0.3,0.5-0.9,1.1-0.8
	c-0.6,0.8-1.3,1.5-1.9,2.3c0,0.9,0.1,1.9-0.1,2.7c-0.6,0-0.4-0.8-0.4-1.1c0-0.5,0.1-1.1,0-1.5C94.1,9,92.6,7.7,92.3,7.3z"/>
<path fill-rule="evenodd" clip-rule="evenodd" d="M102.2,7.2c0.2,1.3,0.2,3.5,0,4.9c-0.4-0.1-0.2-0.7-0.2-1c0-1.1,0-2.6,0-3.7
	c0-0.1,0-0.1,0-0.2C102.1,7.2,102.1,7.2,102.2,7.2z"/>
<path fill-rule="evenodd" clip-rule="evenodd" d="M74.7,10.4c-0.8,0-1.7,0-2.5,0c-0.2,1.6,1.8,1.6,2.5,1c0,0.7-0.7,0.8-1.3,0.8
	c-1-0.1-1.5-0.9-1.6-1.7C71.7,8.5,74.6,8,74.7,10.4z M72.2,10.1c0.7,0,1.4,0,2,0C74.3,8.9,72.2,8.9,72.2,10.1z"/>
<path fill-rule="evenodd" clip-rule="evenodd" d="M86.2,10.4c-0.8,0-1.7,0-2.5,0c-0.2,1.6,1.8,1.6,2.5,1c0,0.7-0.7,0.8-1.3,0.8
	c-1.5,0-2.1-1.8-1.3-2.8C84.3,8.3,86.4,8.8,86.2,10.4z M83.7,10.1c0.7,0,1.4,0,2,0C85.8,8.9,83.7,8.9,83.7,10.1z"/>
<path fill-rule="evenodd" clip-rule="evenodd" d="M97.2,8.8c0.5,0,0.9,0.1,1.2,0.4c1,0.9,0.5,3-1.1,3C95.3,12.2,95,9,97.2,8.8z
	 M96.4,11.5c1.7,1.5,3-1.9,1.3-2.3c-0.1,0-0.8,0-0.8,0.1C96,9.5,95.7,10.9,96.4,11.5z"/>
<path fill-rule="evenodd" clip-rule="evenodd" d="M101.6,9.5c-0.4-0.1-0.4-0.4-0.8-0.3c-1,0.1-0.9,1.7-1,3c-0.5-0.1-0.3-1-0.3-1.5
	c0-0.6,0-1.3,0.1-1.7c0.1,0,0.1,0,0.2,0c0.3,0,0.1,0.5,0.1,0.7c0.2,0,0.3-0.4,0.5-0.6C100.9,8.6,101.9,8.8,101.6,9.5z"/>
<path fill-rule="evenodd" clip-rule="evenodd" d="M86.3,8.9c0.1,0,0.2,0,0.2,0c0.5,0.7,0.8,1.7,1.1,2.5c0.5-0.7,0.7-1.7,1.1-2.5
	c0.4,0.2,0.5,0.8,0.7,1.2c0.2,0.4,0.3,0.9,0.5,1.3c0.2-0.4,0.4-0.9,0.7-1.4c0.2-0.4,0.2-1.2,0.8-1.1c-0.5,1.1-0.9,2.3-1.4,3.3
	c-0.6-0.7-0.7-1.7-1.1-2.6c-0.5,0.8-0.7,1.8-1.1,2.6C87.1,11.3,86.8,10,86.3,8.9z"/>
<path fill-rule="evenodd" clip-rule="evenodd" d="M104.6,8.9c-0.6,0.5-1.1,1-1.7,1.5c0.6,0.6,1.4,1.1,2,1.7
	c-1.2-0.2-1.6-1.2-2.5-1.7C103.1,9.9,103.5,9,104.6,8.9z"/>
<path fill-rule="evenodd" clip-rule="evenodd" fill="#FFFFFF" d="M74.3,10.1c-0.7,0-1.4,0-2,0C72.2,8.9,74.3,8.9,74.3,10.1z"/>
<path fill-rule="evenodd" clip-rule="evenodd" fill="#FFFFFF" d="M85.8,10.1c-0.7,0-1.4,0-2,0C83.7,8.9,85.8,8.9,85.8,10.1z"/>
<path fill-rule="evenodd" clip-rule="evenodd" d="M86.7,16.1c0,2.6,0,5.3,0,7.9c0.3,0.1,0.7,0.1,0.9,0.2c0.1,0.2,0.1,0.4,0.1,0.6
	c-0.3,0.4-1.3,0.2-2,0.2c-0.1-0.2-0.1-0.5-0.1-0.8c-1.7,1.8-5.1,0.9-5.4-1.7c-0.3-2.1,1-4,3.4-4c1,0,1.6,0.4,2.2,1
	c0-0.9,0-1.7,0-2.6c-0.5,0-1.1,0.1-1.3-0.2C84.1,15.5,86.1,16,86.7,16.1z M81.4,22.7c0.3,1.1,1.7,1.7,2.8,1.3c0.8-0.2,1.4-1.1,1.4-2
	c0.1-1.5-0.9-2.4-2.2-2.4C81.9,19.7,81,21.2,81.4,22.7z"/>
<path fill-rule="evenodd" clip-rule="evenodd" d="M70.8,19.6c-1,0.5-0.9-0.8-1.3-1.3c-0.5-0.8-1.7-0.9-2.7-0.5
	c-2.7,1.1-2,7.7,2.2,6.2c0.4-0.1,1.8-1.4,2-0.5c0.2,0.9-1.9,1.7-2.5,1.7c-6.1,0.8-6.1-9.2-0.2-8.6c0.5,0.1,0.7,0.2,1.4,0.4
	c0.2-0.2,0.5-0.5,0.9-0.2C71.1,17.3,70.9,18.9,70.8,19.6z"/>
<path fill-rule="evenodd" clip-rule="evenodd" d="M101.5,18.2c0,1.1,0,2.1,0,3.2c1,0,2.1,0,3.1,0c0,0.3,0,0.6,0,0.8c-1,0-2,0-3.1,0
	c-0.1,0.9,0,2.1-0.1,3.1c-0.2,0.1-0.6,0-0.9,0.1c0-1.1,0-2.1,0-3.2c-1.1,0-2.1,0-3.2,0c0-0.3,0-0.6,0-0.8c1,0,2.1,0,3.1,0
	c0.1-0.9,0-2.1,0.1-3.2C100.9,18.2,101.2,18.2,101.5,18.2z"/>
<path fill-rule="evenodd" clip-rule="evenodd" d="M95.2,22c-1.5,0.4-3.8,0.1-5.7,0.2c0.1,1.6,1.2,2.2,2.8,2c1.1-0.1,2.1-1.2,3-0.6
	c0.1,0.7-0.6,1-1.1,1.2c-1.9,0.7-4.4,0.5-5.4-1c-1.5-2.4,0.3-5.3,3.1-5.4C94,18.4,95.6,19.8,95.2,22z M89.6,21.2c1.5,0,3,0,4.5,0
	C94.1,18.7,89.7,19,89.6,21.2z"/>
<path fill-rule="evenodd" clip-rule="evenodd" d="M74.7,18.5c1.1-0.1,2.3,0.2,2.8,0.5c1.8,1.1,2.1,4.3,0,5.7c-1.9,1.2-5,0.4-5.6-1.5
	C71,20.4,72.6,18.8,74.7,18.5z M73.7,20c-1.4,1.1-0.8,3.7,0.8,4.2c1.3,0.4,2.6-0.2,3.1-1.2c0.9-1.9-0.8-3.7-2.6-3.4
	C74.2,19.6,74,19.7,73.7,20z"/>
<path fill-rule="evenodd" clip-rule="evenodd" d="M88.5,25.8c0.2,0.3,0.2,0.9,0,1.1c-0.3,0.2-0.9,0.2-1.2,0
	C86.7,26.1,87.7,25.2,88.5,25.8z"/>
<path fill-rule="evenodd" clip-rule="evenodd" d="M65,33.3c0-2,0-4.1,0-6.1c-1,0.1-1.1-1-0.3-1.1c4-0.5,6.8,0.6,6.7,4.2
	c0,3.1-2.1,4.3-4.9,4.1c-0.8-0.1-2.4,0.3-2.3-0.5C64.2,33.4,64.5,33.4,65,33.3z M66.1,33.4c1.3,0,2.2,0.1,3-0.4
	c1.5-0.9,1.7-4.4,0-5.4c-0.8-0.5-1.6-0.4-2.9-0.4C66.1,29.1,66.2,31.3,66.1,33.4z"/>
<path fill-rule="evenodd" clip-rule="evenodd" d="M79.5,31.4c-1.7,0.3-3.8,0.1-5.7,0.1c0,1.8,1.6,2.4,3.4,1.9c0.5-0.1,2-1.2,2.4-0.4
	c0.4,0.8-2,1.5-3,1.6c-2.4,0.2-4-1.2-4-3.3c0-2.1,1.6-3.7,4.2-3.4C78.3,28,79.9,29.3,79.5,31.4z M73.8,30.6c1.5,0,3,0,4.5,0
	C78.3,28,73.9,28.4,73.8,30.6z"/>
<path fill-rule="evenodd" clip-rule="evenodd" d="M85.1,30c-0.8-0.1-0.8-0.9-1.6-1.2c-0.9-0.4-2.7,0-2.2,1.1
	c0.4,0.9,3.3,0.2,4.1,1.3c0.5,0.6,0.4,1.7,0.1,2.2c-0.4,0.7-1.3,1-2,1.1c-0.6,0-1.3-0.3-2-0.3c-0.5,0-0.2,0.2-0.9,0.3
	c-0.5-0.4-0.6-2.4,0-2.5c0.6-0.1,0.7,0.7,0.9,1c0.7,0.7,3.3,1,3.2-0.6c0-0.5-0.3-0.7-0.9-0.8c-1.2-0.2-2.5,0.1-3.2-0.8
	c-0.4-0.5-0.5-1.6,0-2.3c0.8-1,2.5-0.9,3.6-0.5c0.3,0,0.5-0.4,0.8-0.2C85.5,28.1,85.5,29.7,85.1,30z"/>
<path fill-rule="evenodd" clip-rule="evenodd" d="M103.7,33.3c0.3,0.1,0.8,0.1,1,0.3c0.5,1.2-2.1,0.8-2.9,0.7c0-0.2-0.1-0.5,0-0.7
	c0.3-0.2,0.6-0.1,0.9-0.2c0-2.2,0.5-4.9-1.9-4.5c-1.7,0.3-1.3,2.3-1.3,4.4c0.2,0.2,0.7,0.1,0.9,0.3c0,0.2,0,0.5-0.1,0.7
	c-0.7,0.1-3.2,0.5-2.9-0.5c0.1-0.3,0.5-0.3,1-0.4c0-1.4,0-2.9,0-4.3c-0.3-0.1-0.8,0-0.9-0.2c-0.1-0.2-0.1-0.5,0-0.7
	c0.4-0.2,1.2-0.1,1.8-0.1c0.1,0.1,0.2,0.3,0.2,0.6c1.2-1.2,3.9-1.1,4.2,1.1C103.8,30.8,103.6,32,103.7,33.3z"/>
<path fill-rule="evenodd" clip-rule="evenodd" d="M94.7,28.7c0-0.3,0-0.6,0.1-0.7c0.6,0.1,1.5-0.2,1.9,0.2c0.2,0.6-0.2,0.9-0.9,0.8
	c-0.3,2.7,0.8,6.6-1,7.7c-0.4,0.3-3.6,1.1-3.7-0.1c-0.1-1,2.1-0.4,2.8-0.7c1-0.4,0.8-1.2,0.8-2.6c-0.5,0.4-1.4,0.9-2.6,0.8
	c-1.5-0.2-2.5-1.5-2.5-3C89.6,28.4,92.6,27,94.7,28.7z M90.8,30.3c-1.2,3.8,5.4,3.4,3.9-0.2c-0.3-0.7-1.1-1.2-2.3-1
	C91.4,29.2,90.9,29.8,90.8,30.3z"/>
<path fill-rule="evenodd" clip-rule="evenodd" d="M88.4,28c0.1,1.6,0,3.5,0.1,5.2c0.3,0.1,0.9,0,1.1,0.3c0,0.3,0,0.3,0,0.6
	c-0.7,0.3-2.4,0.2-3.2,0.1c-0.4-0.7,0.3-1,1-0.9c0-1.4,0-2.9,0-4.3c-0.3-0.1-0.9,0-1.1-0.3C86.1,27.5,87.8,28.1,88.4,28z"/>
<path fill-rule="evenodd" clip-rule="evenodd" d="M78.7,38.8c0.5,0.8,1,1.7,1.4,2.7c0.4,0.9,0.8,1.9,1.1,2.7
	c-0.6,0.1-0.6-0.5-0.7-0.8c-0.2-0.4-0.4-0.7-0.5-1c-0.8,0-1.7,0-2.5,0c-0.6,0.5-0.3,1.7-1.3,1.8C77,42.3,77.8,40.4,78.7,38.8z
	 M77.6,42c0.7,0,1.4,0,2.2,0c-0.3-0.9-0.6-1.7-1.1-2.4C78.4,40.4,77.9,41.1,77.6,42z"/>
<path fill-rule="evenodd" clip-rule="evenodd" d="M91.4,38.8c0,1.7,0.1,3.7-0.1,5.3c-0.2,0-0.5,0-0.4-0.2c-1,0.7-2.3,0.1-2.6-0.7
	c-0.7-1.6,0.9-3.3,2.6-2.4c0-0.7,0-1.3,0-2C91.1,38.8,91.2,38.8,91.4,38.8z M88.7,41.8c-0.5,1.4,1,2.6,2.3,1.7c0-0.8,0-1.5,0-2.3
	C90.1,40.7,88.9,41,88.7,41.8z"/>
<path fill-rule="evenodd" clip-rule="evenodd" d="M84.3,40.8c0,0.1,0,0.2,0,0.3c-0.2,0.1-0.6-0.2-1-0.1c-1.6,0.1-1.5,2.7,0,2.9
	c0.4,0,0.6-0.2,1.1-0.1c0.1,0.4-0.3,0.5-0.5,0.5C80.7,44.9,81.1,39.3,84.3,40.8z"/>
<path fill-rule="evenodd" clip-rule="evenodd" d="M87.3,43.8c0.2,0.2,0.4-0.3,0.5-0.2c0,0.4-0.3,0.5-0.7,0.6c-0.2,0-0.2-0.2-0.2-0.4
	c-0.6,0.5-1.7,0.5-2-0.2c-0.4-1,0.9-1.6,2-1.6c0.4-1.5-1.4-1.1-1.8-0.8c0-0.9,1.7-0.8,2-0.4C87.7,41.6,87.1,42.8,87.3,43.8z
	 M85.2,43.3c0.1,0.7,1.2,0.6,1.6,0.1c0-0.4,0-0.7,0-1.1C86,42.3,85.2,42.7,85.2,43.3z"/>
<path fill-rule="evenodd" clip-rule="evenodd" d="M95.3,42.3c-0.9,0-1.8,0-2.8,0c-0.2,1.7,2,1.8,2.7,1.1c0,0.9-1.2,0.9-1.7,0.8
	c-1.9-0.3-1.8-4.1,0.7-3.6C94.8,40.7,95.3,41.3,95.3,42.3z M92.7,42c0.7,0,1.4,0,2.2,0C94.9,40.6,92.6,40.6,92.7,42z"/>
<path fill-rule="evenodd" clip-rule="evenodd" d="M98.6,41.4c0.3-0.3,0.5-0.7,0.9-0.8c1.8-0.4,1.7,2,1.5,3.6c-0.1,0-0.2,0-0.2,0
	c-0.4-1.1,0.3-3.1-0.9-3.2c-0.6-0.1-0.8,0.4-1.1,0.8c0,0.4,0,0.9,0,1.3c0,0.4,0.1,0.9-0.2,1.1c-0.3-0.1-0.2-0.6-0.2-0.9
	c0-1,0.1-2.3-1-2.3c-1.4,0-0.9,1.9-1.1,3.2c-0.4,0.1-0.2-0.5-0.2-0.7c0-0.8-0.1-2.1,0.1-2.8c0.4-0.1,0.2,0.3,0.2,0.5
	C96.7,40.6,98.5,40.2,98.6,41.4z"/>
<path fill-rule="evenodd" clip-rule="evenodd" d="M101.4,40.7c0.1-0.1,0.2-0.1,0.3-0.1c0.7,0.2,0.8,2,1.4,2.4
	c0.3-0.4,0.4-0.9,0.7-1.3c0.2-0.4,0.3-1.1,0.9-1c-0.6,1.4-1.3,2.7-2,4.2c-0.2,0.4-0.3,1.2-0.9,1.1c0.3-0.9,0.8-1.6,1.1-2.4
	C102.5,42.5,102,41.6,101.4,40.7z"/>
</svg>
